<?xml version="1.0" encoding="UTF-8"?>
<svg width="277px" height="149px" viewBox="0 0 277 149" version="1.1" xmlns="http://www.w3.org/2000/svg" xmlns:xlink="http://www.w3.org/1999/xlink">
    <!-- Generator: Sketch 48.2 (47327) - http://www.bohemiancoding.com/sketch -->
    <title>OODC_Warm Grey</title>
    <desc>Created with Sketch.</desc>
    <defs>
        <polygon id="path-1" points="0.57932025 0.093125 173.7922 0.093125 173.7922 71.0792083 0.57932025 71.0792083"></polygon>
        <polygon id="path-3" points="1.8848 0.235916667 24.6822 0.235916667 24.6822 18.43875 1.8848 18.43875"></polygon>
    </defs>
    <g id="Page-1" stroke="none" stroke-width="1" fill="none" fill-rule="evenodd">
        <g id="OODC_Warm-Grey">
            <path d="M7.9949,36.7750625 C7.9949,26.26125 13.9841,1.7973125 27.2583,1.7973125 C32.8197,1.7973125 36.0778,5.77685417 36.0778,15.2880208 C36.0778,25.1872083 30.7365,51.44225 16.9849,51.44225 C14.4367,51.44225 12.3969,51.0045625 10.0037,47.1429792 C8.6118,44.8955625 7.9949,41.9590208 7.9949,36.7750625 M0,32.6434167 C0,48.0369792 9.4953,53.1402292 17.143,53.1402292 C30.659,53.1402292 43.7069,36.356 43.7069,20.2764167 C43.7069,7.75110417 36.4467,0.0962291667 27.3389,0.0962291667 C12.5116,0.0962291667 0,18.8826458 0,32.6434167" id="Fill-1" fill="#7C7267"></path>
            <path d="M51.9405,27.620875 C52.1699,26.8448333 52.7093,25.2989583 52.7093,24.5260208 C52.7093,24.2218125 52.7093,23.2874583 51.7049,23.2874583 C50.1642,23.2874583 47.9973,25.9942917 46.4504,28.7787292 L44.6803,28.7787292 C47.9973,22.7473333 52.1234,20.1957083 54.591,20.1957083 C57.1423,20.1957083 57.5267,22.6728333 57.5267,23.8306875 C57.5267,26.075 56.3704,30.1725 55.0529,33.729875 L55.2079,33.8819792 C60.9987,21.8222917 65.7913,20.2391667 68.2589,20.1957083 C71.1946,20.1491458 74.4217,21.7974583 74.4217,25.6621458 C74.4217,27.2080208 73.9133,28.8346042 72.757,32.3174792 L68.8758,44.0170833 C68.7983,44.2436875 68.572,45.016625 68.3426,45.6436667 C67.7195,47.3416458 67.2545,48.574 67.2545,49.4276458 C67.2545,50.2781875 67.8745,50.9704167 68.6495,50.9704167 C69.4183,50.9704167 71.5821,50.2036875 74.5178,45.0973333 L76.4491,45.0973333 C75.4385,47.0312292 72.4315,53.2892292 66.0176,53.2892292 C64.9388,53.2892292 61.8512,52.7553125 61.8512,49.1172292 C61.8512,47.5713542 62.3906,46.0254792 63.6244,42.3873958 L67.642,30.9485417 C68.7239,27.7760833 69.2633,26.1526042 69.2633,24.8333333 C69.2633,24.0603958 68.9533,22.5145208 67.022,22.5145208 C65.0163,22.5145208 62.3131,24.8333333 59.458,29.16675 C56.5967,33.4970625 53.816,39.6060625 51.6553,46.7208125 L49.8046,52.7553125 L44.2184,52.7553125 L51.9405,27.620875" id="Fill-3" fill="#7C7267"></path>
            <path d="M84.5494,38.0601875 C87.6401,26.7734375 92.5071,22.2103125 94.8197,22.2103125 C95.7466,22.2103125 97.3493,22.480375 97.216,25.0723542 C96.9773,29.6261667 90.1108,35.5085625 84.5494,38.0601875 M95.7466,42.5457083 C93.5053,47.4906458 90.3433,51.1318333 86.7132,51.1318333 C86.3319,51.1318333 82.8537,51.1318333 82.8537,46.2551875 C82.8537,44.3957917 83.4737,41.5399583 84.01,39.987875 C84.0906,39.987875 84.3944,39.764375 84.4781,39.764375 C87.8695,38.293 100.7531,33.26425 101.1902,25.3889792 C101.2739,23.9238125 100.7221,20.1957083 95.9822,20.1957083 C89.1808,20.1957083 77.5806,32.1032917 77.5806,44.1722917 C77.5806,50.7345 82.2337,53.2892292 85.3213,53.2892292 C90.4239,53.2892292 94.8972,48.7292083 97.6004,42.5457083 L95.7466,42.5457083" id="Fill-4" fill="#7C7267"></path>
            <path d="M163.7699,36.7750625 C163.7699,26.26125 169.7529,1.7973125 183.0302,1.7973125 C188.5885,1.7973125 191.8528,5.77685417 191.8528,15.2880208 C191.8528,25.1872083 186.5053,51.44225 172.763,51.44225 C170.2117,51.44225 168.1719,51.0045625 165.7725,47.1429792 C164.3868,44.8955625 163.7699,41.9590208 163.7699,36.7750625 M155.7719,32.6434167 C155.7719,48.0369792 165.2734,53.1402292 172.9118,53.1402292 C186.434,53.1402292 199.4819,36.356 199.4819,20.2764167 C199.4819,7.75110417 192.2217,0.0962291667 183.1077,0.0962291667 C168.2866,0.0962291667 155.7719,18.8826458 155.7719,32.6434167" id="Fill-5" fill="#7C7267"></path>
            <path d="M208.6641,27.620875 C208.9028,26.8448333 209.4391,25.2989583 209.4391,24.5260208 C209.4391,24.2218125 209.4391,23.2874583 208.4316,23.2874583 C206.8909,23.2874583 204.7302,25.9942917 203.1864,28.7787292 L201.4101,28.7787292 C204.7302,22.7473333 208.8532,20.1957083 211.3239,20.1957083 C213.8752,20.1957083 214.2596,22.6728333 214.2596,23.8306875 C214.2596,26.075 213.1002,30.1725 211.7827,33.729875 L211.9408,33.8819792 C217.7285,21.8222917 222.5242,20.2391667 224.9887,20.1957083 C227.9244,20.1491458 231.1453,21.7974583 231.1453,25.6621458 C231.1453,27.2080208 230.6431,28.8346042 229.4837,32.3174792 L225.6056,44.0170833 C225.5374,44.2436875 225.2987,45.016625 225.0662,45.6436667 C224.4524,47.3416458 223.9874,48.574 223.9874,49.4276458 C223.9874,50.2781875 224.6043,50.9704167 225.3824,50.9704167 C226.1512,50.9704167 228.3088,50.2036875 231.2507,45.0973333 L233.1758,45.0973333 C232.1714,47.0312292 229.1644,53.2892292 222.7505,53.2892292 C221.6686,53.2892292 218.5841,52.7553125 218.5841,49.1172292 C218.5841,47.5713542 219.1204,46.0254792 220.3604,42.3873958 L224.3718,30.9485417 C225.4568,27.7760833 225.9931,26.1526042 225.9931,24.8333333 C225.9931,24.0603958 225.6862,22.5145208 223.7549,22.5145208 C221.743,22.5145208 219.046,24.8333333 216.1847,29.16675 C213.3296,33.4970625 210.552,39.6060625 208.3882,46.7208125 L206.5282,52.7553125 L200.9451,52.7553125 L208.6641,27.620875" id="Fill-6" fill="#7C7267"></path>
            <path d="M250.1793,43.1634375 C248.6355,47.102625 245.3154,53.2892292 240.2965,53.2892292 C236.8679,53.2892292 234.7568,50.9704167 234.7568,48.425 C234.7568,46.0999792 235.8325,42.6202083 236.2262,41.2295417 C236.4525,40.6087083 236.8431,39.4446458 237.1531,38.3706042 L246.0253,9.219375 C247.0297,5.89791667 247.1134,5.50679167 247.1134,4.8890625 C247.1134,3.18797917 245.8734,3.18797917 244.0258,3.18797917 L242.6339,3.18797917 L243.0989,1.639 C248.4278,1.5645 251.9525,0.788458333 252.8763,0.4004375 C253.2669,0.248333333 253.3475,0.248333333 254.1969,0.248333333 L242.0728,40.3013958 C241.7597,41.3071458 241.2978,42.6202083 240.9134,43.7811667 C240.1446,46.0999792 239.8625,47.5185833 239.8625,48.7540417 C239.8625,50.5327292 240.8328,51.1318333 241.6884,51.1318333 C243.6166,51.1318333 246.5461,48.1114792 248.4805,43.1634375 L250.1793,43.1634375" id="Fill-7" fill="#7C7267"></path>
            <g id="Group-11" transform="translate(102.300000, 0.000000)">
                <mask id="mask-2" fill="white">
                    <use xlink:href="#path-1"></use>
                </mask>
                <g id="Clip-9"></g>
                <path d="M148.9023,30.4829167 C149.761,20.431625 154.5412,20.1957083 155.3906,20.1957083 C157.2444,20.1957083 159.2067,21.251125 160.3568,22.9801458 C162.3377,25.96325 162.44,30.7157292 162.44,34.0371875 C162.44,36.9768333 162.3625,43.47075 160.3568,50.511 L160.5118,50.6662083 C164.0675,46.6463125 171.089,36.6695208 171.089,29.781375 C171.089,28.7818333 170.8565,27.3073542 170.1621,26.1495 C170.0877,26.075 169.6971,25.3765625 169.6289,25.2244583 C169.2414,24.603625 168.6927,23.6754792 168.6927,22.6728333 C168.6927,21.4342708 169.4708,20.1957083 170.7046,20.1957083 C172.7909,20.1957083 173.7922,22.9056458 173.7922,26.3047083 C173.7922,43.9394792 148.4683,65.89525 144.9126,68.0619583 C140.8237,70.532875 137.8849,71.0792083 135.6498,71.0792083 C132.8691,71.0792083 130.8572,70.0703542 130.8572,68.2916667 C130.8572,66.5936875 132.7885,65.8238542 134.0254,65.8238542 C134.8748,65.8238542 135.7211,66.0566667 136.7286,66.3577708 C137.8849,66.6712917 139.2799,67.0562083 140.6625,67.0562083 C143.0588,67.0562083 146.0658,65.8331667 151.3141,60.5809167 C154.1692,57.7219792 154.7768,54.2980833 155.3906,51.8240625 C156.7794,46.1030833 157.2444,39.6060625 157.2444,34.4252083 C157.2444,26.8448333 155.7037,23.4426667 153.9212,23.4426667 C151.1498,23.4426667 150.6042,29.3250625 150.4492,30.4829167 L148.9023,30.4829167" id="Fill-8" fill="#7C7267" mask="url(#mask-2)"></path>
                <path d="M50.8524,10.579 C49.7457,9.32802083 48.2453,8.47127083 46.6054,8.15464583 C46.1807,8.07704167 45.7281,8.03358333 45.2569,8.03047917 C45.2321,8.03047917 45.2135,8.03047917 45.1918,8.03047917 C41.7632,8.03047917 38.8833,10.2220208 38.0432,13.1927083 C37.6898,14.3257292 37.4945,15.812625 38.595,16.5886667 C39.1654,16.9953125 39.9125,16.9797917 40.4736,16.50175 C40.8673,16.1665 41.2486,15.5239375 41.0409,14.7261667 C40.7619,13.6459167 40.2349,12.5470417 40.9634,11.5164583 C41.0843,11.3674583 41.2269,11.2184583 41.385,11.0756667 C41.4036,11.0570417 41.4315,11.0322083 41.4563,11.0166875 L41.4501,11.0135833 C42.0856,10.4641458 42.9474,10.0264583 43.7937,9.83089583 C47.6594,8.95241667 50.8276,12.2769792 50.3781,15.9771458 C49.7333,21.3163125 45.5824,23.076375 38.409,22.9584167 C31.9207,22.852875 27.5001,23.2036458 23.9723,25.4634792 C21.2412,27.211125 19.2727,29.7379167 19.1611,33.5715625 C19.0991,35.57375 19.8927,37.6907917 21.5822,38.8672708 C23.0764,39.9071667 25.172,40.1865417 26.9173,39.6836667 C28.1945,39.3142708 30.0328,38.5289167 29.9863,36.8899167 C29.9615,36.151125 29.4686,35.5209792 28.6874,35.3440417 C28.1418,35.2291875 27.3389,35.3098958 26.7778,35.9928125 C25.9966,36.9582083 25.3673,38.1564167 23.8917,38.1098542 C22.0596,38.0446667 20.9095,35.8500208 20.9064,34.027875 C20.9033,31.1006458 23.3244,28.1641042 27.8411,27.2980417 C34.9277,25.944625 39.1251,29.3747292 40.1822,33.7578125 C41.0471,37.3555417 38.8833,42.1980417 35.6407,44.5044375 C28.799,49.3810833 20.4848,48.8937292 14.4863,45.202875 C7.6322,40.9843125 5.3785,29.8465625 13.7547,23.244 C19.0805,19.0409583 23.9134,18.1997292 27.9589,16.7718125 C29.1555,16.3496458 30.2126,15.9585208 29.3012,15.3625208 C28.6161,14.9124167 28.4456,14.7665208 28.2069,14.7292708 C27.9806,14.6920208 27.7574,14.769625 27.6365,14.8099792 C26.784,15.0738333 24.4342,16.0237083 21.9728,15.9647292 C21.9511,15.961625 21.9325,15.961625 21.9139,15.961625 C21.8488,15.9585208 21.7806,15.9585208 21.7186,15.9492083 C21.6597,15.9461042 21.6008,15.943 21.5419,15.9398958 C21.4644,15.9336875 21.3869,15.924375 21.3094,15.9181667 C21.3001,15.9181667 21.2908,15.9150625 21.2846,15.9150625 C20.1407,15.7877917 19.0464,15.3997708 18.1815,14.5740625 C18.0048,14.41575 17.8312,14.2419167 17.6731,14.0587708 C15.4287,11.4078125 16.275,6.99058333 19.5672,4.190625 C21.7403,2.34054167 24.428,1.657625 26.6569,2.16670833 C27.2831,2.3001875 27.9062,2.54541667 28.5014,2.93033333 C29.7197,3.70947917 30.3304,4.91079167 31.0124,6.12141667 C31.2604,6.56220833 31.5425,7.00610417 32.0013,7.2544375 C32.6709,7.62383333 33.4769,7.57727083 34.0132,6.99679167 C35.0889,5.83583333 34.3759,4.321 33.4211,3.3618125 C32.7577,2.700625 31.9083,2.08910417 30.8946,1.583125 C28.6688,0.4376875 25.8757,-0.1210625 22.909,0.167625 C16.2657,0.822604167 11.2778,5.4291875 11.7676,10.4610417 C12.0869,13.7607708 14.6878,16.4241458 18.3117,17.6844375 C16.4424,18.1873125 8.3111,20.9779583 3.8502,27.2235417 C-0.093,32.7458542 -0.5301,39.5812292 2.8613,44.7434583 C3.8099,46.1868958 4.9972,47.4658125 6.3736,48.5615833 C10.5493,52.205875 17.3135,54.0528542 24.5675,52.9974375 C35.7523,51.3739583 43.8681,43.4800625 42.6932,35.3626667 C42.2561,32.333 40.9479,29.7161875 38.1114,27.6798542 C46.5899,27.37875 51.0725,23.7872292 52.4923,19.8915 C53.6238,16.7904375 53.0844,13.0902708 50.8524,10.579" id="Fill-10" fill="#7C7267" mask="url(#mask-2)"></path>
            </g>
            <path d="M22.1836,98.693875 C22.1836,103.011771 22.1557,103.111104 24.7597,103.111104 C25.9253,103.111104 27.7357,103.064542 29.0997,101.993604 C31.0806,100.457042 31.4526,97.7502083 31.4526,95.7914792 C31.4526,94.2269792 31.2046,91.9174792 29.915,90.0798125 C28.2069,87.64925 25.4789,87.6740833 24.1924,87.6740833 C23.3461,87.6740833 22.7292,87.6989167 22.1836,87.72375 L22.1836,98.693875 Z M24.3412,87.0780833 C27.9341,87.0780833 29.915,87.8479167 31.4278,89.13925 C33.6846,91.0483125 34.1062,93.7799792 34.1062,95.6176458 C34.1062,97.0052083 33.8086,99.9852083 31.5797,101.872542 C29.419,103.707104 26.7437,103.682271 24.3164,103.682271 L17.0283,103.68228 L17.0283,103.139042 L17.6979,103.139042 C19.8059,103.139042 19.8059,102.592708 19.8059,99.4140417 L19.8059,91.4735833 C19.8059,88.1459167 19.7532,87.94725 17.5739,87.94725 L17.1027,87.94725 L17.1027,87.3760833 C19.3564,87.2270833 21.5109,87.0780833 24.3412,87.0780833 Z" id="Fill-12" fill="#7C7267"></path>
            <path d="M54.591,98.5697083 L54.2469,103.682271 L40.6627,103.682271 L40.6627,103.139042 L40.9851,103.139042 C43.1179,103.139042 43.1179,102.592708 43.1179,99.4140417 L43.1179,91.3494167 C43.1179,88.09625 43.09,87.79825 40.9851,87.79825 L40.9851,87.2519167 L52.7341,87.2519167 L53.1061,91.3494167 L52.5357,91.3494167 C51.7421,87.8479167 50.5548,87.79825 47.7772,87.79825 L45.4987,87.79825 L45.4987,94.7236458 L47.2564,94.7236458 C49.5597,94.7236458 49.7085,94.1524792 49.7085,92.2403125 L50.282,92.2403125 L50.282,97.874375 L49.7085,97.874375 C49.7085,95.3941458 49.1629,95.2699792 47.2812,95.2699792 L45.4987,95.2699792 L45.4987,99.1657083 C45.4987,102.940375 45.6475,103.139042 47.9012,103.139042 L49.1164,103.139042 C50.5021,103.139042 52.9325,103.139042 54.0237,98.5697083 L54.591,98.5697083" id="Fill-13" fill="#7C7267"></path>
            <path d="M61.2932,98.2251458 L61.8884,98.2251458 C62.1116,99.364375 62.93,103.387375 66.7709,103.387375 C69.0029,103.387375 70.4165,101.872542 70.4165,100.183875 C70.4165,97.8495417 67.9613,96.9834792 66.3741,96.2881458 C63.8476,95.1706458 61.4172,94.0779792 61.4172,91.0265833 C61.4172,88.8909167 63.0292,86.9539167 65.7572,86.9539167 C67.9117,86.9539167 68.9533,88.0465833 69.5454,88.69225 C70.091,88.02175 70.1437,87.5499167 70.1902,87.2519167 L70.711,87.2519167 L70.711,91.5480833 L70.1902,91.5480833 C69.4493,88.5680833 67.4901,87.5499167 65.8285,87.5499167 C63.9933,87.5499167 63.0044,88.76675 63.0044,90.0580833 C63.0044,92.0199167 65.0349,92.9356458 66.9476,93.7551458 C70.1189,95.1209792 72.1494,96.1391458 72.1494,99.2402083 C72.1494,101.624208 70.6397,103.980271 66.9941,103.980271 C64.7652,103.980271 63.2772,102.837938 62.4836,101.919104 C62.3348,102.145708 62.0868,102.515104 61.8884,103.508438 L61.2932,103.508438 L61.2932,98.2251458" id="Fill-14" fill="#7C7267"></path>
            <path d="M88.1981,97.0797083 L85.2996,90.0798125 L82.4228,97.0797083 L88.1981,97.0797083 Z M82.1748,97.6260417 L81.2076,100.034875 C81.0588,100.432208 80.8108,101.251708 80.8108,101.596271 C80.8108,102.390937 81.3812,103.139042 82.5933,103.139042 L82.5933,103.682271 L77.7108,103.682271 L77.7108,103.139042 C78.4083,103.111104 79.422,102.688937 80.0668,101.177208 L85.9661,87.0035833 L86.4373,87.0035833 L92.4606,101.276542 C92.8326,102.145708 93.3534,103.139042 94.6678,103.139042 L94.6678,103.682271 L88.1981,103.682271 L88.1981,103.139042 C89.3637,103.139042 90.2286,103.160771 90.2286,102.241937 C90.2286,101.971875 90.0798,101.624208 89.9093,101.226875 L88.4182,97.6260417 L82.1748,97.6260417 Z" id="Fill-15" fill="#7C7267"></path>
            <path d="M104.6932,95.1706458 L106.0572,95.1706458 C109.058,95.1706458 110.3445,93.9786458 110.3445,91.4456458 C110.3445,88.3445833 108.5837,87.6244167 105.71,87.6244167 C105.2636,87.6244167 105.0156,87.64925 104.6932,87.6740833 L104.6932,95.1706458 Z M112.995,91.2718125 C112.995,93.6061458 111.0885,95.1706458 108.0877,95.4189792 C108.8317,95.4686458 110.2205,97.129375 110.6421,97.7036458 L112.7222,100.432208 C113.7638,101.798042 115.1309,103.139042 117.0839,103.139042 L117.0839,103.682271 L112.6757,103.682271 C112.2541,103.359437 111.6093,102.865875 110.4933,101.326208 L107.9172,97.7750417 C106.454,95.7666458 105.958,95.7666458 105.0404,95.7666458 L104.6932,95.7666458 L104.6932,99.4140417 C104.6932,102.592708 104.6684,103.139042 106.7516,103.139042 L107.5421,103.139042 L107.5421,103.682271 L99.6867,103.682271 L99.6867,103.139042 L100.2075,103.139042 C102.3155,103.139042 102.3155,102.592708 102.3155,99.4140417 L102.3155,91.3494167 C102.3155,87.72375 102.1388,87.79825 99.8107,87.79825 L99.8107,87.2519167 C101.5715,87.12775 104.2716,87.0284167 105.8836,87.0284167 C106.95,87.0284167 112.995,86.9290833 112.995,91.2718125 Z" id="Fill-16" fill="#7C7267"></path>
            <path d="M140.2223,87.2519167 L140.2223,87.79825 C137.8167,87.9720833 137.8167,89.2385833 137.8167,91.2718125 L137.8167,96.7351458 C137.8167,98.8925417 137.8167,99.960375 137.175,101.152375 C136.307,102.741708 134.2982,103.980271 131.1734,103.980271 C127.7789,103.980271 126.1669,102.515104 125.5221,101.574542 C124.7037,100.357708 124.7037,99.215375 124.7037,96.4340417 L124.7037,91.3959792 C124.7037,88.0714167 124.682,87.79825 122.5027,87.79825 L122.1276,87.79825 L122.1276,87.2519167 L129.6141,87.2519167 L129.6141,87.79825 C127.162,87.79825 127.0845,87.79825 127.0845,91.3494167 L127.0845,96.5116458 C127.0845,98.8677083 127.0845,100.183875 127.7045,101.226875 C128.2749,102.195375 129.5893,103.160771 131.7438,103.160771 C133.3806,103.160771 135.4638,102.592708 136.5302,100.928875 C137.2246,99.8610417 137.2246,98.7187083 137.2246,96.6358125 L137.2246,91.0483125 C137.2246,89.06475 137.2246,87.9720833 134.7198,87.79825 L134.7198,87.2519167 L140.2223,87.2519167" id="Fill-17" fill="#7C7267"></path>
            <path d="M171.9446,97.5267083 L171.9446,103.263208 L171.4486,103.263208 C171.2998,102.639271 171.0518,102.043271 170.655,101.524875 C168.8942,103.582938 166.7893,103.980271 165.1308,103.980271 C160.4901,103.980271 157.046,100.804708 157.046,95.7666458 C157.046,91.5698125 159.4764,86.9539167 165.0781,86.9539167 C168.1502,86.9539167 170.0598,88.6425833 170.655,89.3875833 C171.0797,88.5184167 171.2254,87.7485833 171.275,87.2519167 L171.8206,87.2519167 L171.9446,93.4819792 L171.4486,93.4819792 C170.7294,88.61775 167.5798,87.5499167 165.4749,87.5499167 C161.1628,87.5499167 159.8236,91.82125 159.8236,95.6673125 C159.8236,101.127542 162.7221,103.284938 165.5989,103.284938 C169.6165,103.284938 171.151,99.9355417 171.4486,97.5267083 L171.9446,97.5267083" id="Fill-18" fill="#7C7267"></path>
            <path d="M188.5389,103.387375 C193.9205,103.387375 194.6118,98.246875 194.6118,95.4686458 C194.6118,93.0846458 194.1158,87.5499167 188.4397,87.5499167 C183.334,87.5499167 182.2955,91.9919792 182.2955,95.4438125 C182.2955,100.556375 184.2268,103.387375 188.5389,103.387375 Z M188.3684,86.9539167 C192.8262,86.9539167 197.3894,89.5614167 197.3894,95.4438125 C197.3894,100.457042 193.8926,103.980271 188.4397,103.980271 C183.458,103.980271 179.5179,100.804708 179.5179,95.3444792 C179.5179,89.7600833 183.9044,86.9539167 188.3684,86.9539167 Z" id="Fill-19" fill="#7C7267"></path>
            <path d="M213.5621,97.0797083 L210.6605,90.0798125 L207.7837,97.0797083 L213.5621,97.0797083 Z M207.5357,97.6260417 L206.5716,100.034875 C206.4228,100.432208 206.1748,101.251708 206.1748,101.596271 C206.1748,102.390937 206.7421,103.139042 207.9573,103.139042 L207.9573,103.682271 L203.0748,103.682271 L203.0748,103.139042 C203.7692,103.111104 204.786,102.688937 205.4308,101.177208 L211.3301,87.0035833 L211.7982,87.0035833 L217.8246,101.276542 C218.1966,102.145708 218.7174,103.139042 220.0287,103.139042 L220.0287,103.682271 L213.5621,103.682271 L213.5621,103.139042 C214.7277,103.139042 215.5926,103.160771 215.5926,102.241937 C215.5926,101.971875 215.4438,101.624208 215.2702,101.226875 L213.7822,97.6260417 L207.5357,97.6260417 Z" id="Fill-20" fill="#7C7267"></path>
            <path d="M225.866,98.2251458 L226.4612,98.2251458 C226.6844,99.364375 227.5028,103.387375 231.3437,103.387375 C233.5757,103.387375 234.9893,101.872542 234.9893,100.183875 C234.9893,97.8495417 232.5341,96.9834792 230.9469,96.2881458 C228.4204,95.1706458 225.99,94.0779792 225.99,91.0265833 C225.99,88.8909167 227.602,86.9539167 230.33,86.9539167 C232.4845,86.9539167 233.5261,88.0465833 234.1182,88.69225 C234.6638,88.02175 234.7165,87.5499167 234.763,87.2519167 L235.2838,87.2519167 L235.2838,91.5480833 L234.763,91.5480833 C234.0221,88.5680833 232.0629,87.5499167 230.4013,87.5499167 C228.5661,87.5499167 227.5772,88.76675 227.5772,90.0580833 C227.5772,92.0199167 229.6077,92.9356458 231.5204,93.7551458 C234.6917,95.1209792 236.7222,96.1391458 236.7222,99.2402083 C236.7222,101.624208 235.2125,103.980271 231.5669,103.980271 C229.3349,103.980271 227.85,102.837938 227.0564,101.919104 C226.9076,102.145708 226.6596,102.515104 226.4612,103.508438 L225.866,103.508438 L225.866,98.2251458" id="Fill-21" fill="#7C7267"></path>
            <path d="M242.9811,91.1973125 L243.0524,87.2519167 L258.9678,87.2519167 L259.0639,91.1973125 L258.5431,91.1973125 C257.9758,87.79825 256.835,87.79825 254.8262,87.79825 L252.1974,87.79825 L252.1974,99.4140417 C252.1974,102.592708 252.1974,103.139042 254.2806,103.139042 L255.099,103.139042 L255.099,103.682271 L246.8933,103.682271 L246.8933,103.139042 L247.7396,103.139042 C249.8476,103.139042 249.8197,102.592708 249.8197,99.4140417 L249.8197,87.79825 L246.4004,87.79825 C244.3668,87.79825 244.0692,88.8660833 243.5267,91.1973125 L242.9811,91.1973125" id="Fill-22" fill="#7C7267"></path>
            <path d="M106.5098,123.679312 L111.1164,123.679312 L110.949,124.297042 C108.5496,124.297042 108.4938,124.660229 107.88,127.118729 L105.0311,138.632083 C104.7521,139.749583 104.7242,139.861333 104.7242,140.196583 C104.7242,141.453771 106.3455,141.565521 106.7082,141.565521 L107.1267,141.565521 L106.9283,142.180146 L99.2,142.180146 L99.3922,141.565521 C101.8505,141.565521 102.0458,140.727396 102.5759,138.660021 L105.8681,125.582167 L94.5376,142.180146 L93.868,142.180146 L92.0545,126.979042 L88.0927,137.486646 C87.5905,138.827646 87.42,139.442271 87.42,139.833396 C87.42,141.509646 88.7902,141.537583 89.7667,141.565521 L89.5683,142.180146 L83.3745,142.180146 L83.5698,141.565521 C85.9165,141.481708 86.4187,140.112771 87.7827,136.564708 L91.3012,127.481917 C91.8871,125.945354 91.8871,125.749792 91.8871,125.442479 C91.8871,124.408792 91.0501,124.297042 90.1294,124.297042 L89.404,124.297042 L89.5683,123.679312 L93.8959,123.679312 L95.821,139.330521 L106.5098,123.679312" id="Fill-23" fill="#7C7267"></path>
            <path d="M114.7899,141.789021 C115.6548,141.789021 117.2172,140.559771 118.1968,138.632083 C119.3407,136.369146 120.0661,133.544354 120.0661,132.706229 C120.0661,131.868104 119.6197,131.337292 118.9222,131.337292 C116.4639,131.337292 113.677,137.598396 113.677,139.973083 C113.677,140.643583 113.7049,141.789021 114.7899,141.789021 Z M122.4655,130.834417 L120.0382,138.827646 C119.8708,139.358458 119.5081,140.559771 119.5081,140.922958 C119.5081,141.174396 119.6197,141.481708 120.0103,141.481708 C120.7357,141.481708 121.6285,140.308333 122.1586,139.330521 L122.7476,139.330521 C121.8796,141.174396 120.4288,142.571271 119.3965,142.571271 C118.3363,142.571271 118.0573,141.565521 118.0573,140.922958 C118.0573,140.643583 118.1689,139.973083 118.3921,139.274646 C117.8341,140.336271 116.0454,142.571271 114.3745,142.571271 C113.2833,142.571271 112.0557,141.621396 112.0557,139.554021 C112.0557,135.195771 116.3554,130.610917 118.8106,130.610917 C119.6197,130.610917 120.2893,131.057917 120.4846,132.063667 L120.8225,130.834417 L122.4655,130.834417 Z" id="Fill-24" fill="#7C7267"></path>
            <path d="M131.8368,138.911458 C131.2819,140.336271 130.0822,142.571271 128.2656,142.571271 C127.1775,142.571271 126.6226,141.733146 126.6226,140.811208 C126.6226,140.112771 126.9264,138.939396 127.0132,138.660021 L130.6123,126.951104 C130.6929,126.699667 131.0866,125.467312 131.0866,125.076187 C131.0866,124.464667 130.6402,124.464667 129.9706,124.464667 L129.4684,124.464667 L129.6327,123.905917 C131.254,123.905917 132.1747,123.70725 132.9807,123.399937 L133.2907,123.399937 L128.6283,138.771771 C128.4888,139.218771 128.1261,140.364208 128.1261,140.922958 C128.1261,141.565521 128.4609,141.789021 128.7678,141.789021 C129.4684,141.789021 130.5255,140.699458 131.2261,138.911458 L131.8368,138.911458" id="Fill-25" fill="#7C7267"></path>
            <g id="Group-29" transform="translate(133.300000, 130.375000)">
                <mask id="mask-4" fill="white">
                    <use xlink:href="#path-3"></use>
                </mask>
                <g id="Clip-27"></g>
                <path d="M4.619,11.4140208 C5.487,11.4140208 7.0463,10.1847708 8.0259,8.25708333 C9.1698,5.99414583 9.8952,3.16935417 9.8952,2.33122917 C9.8952,1.49310417 9.4488,0.962291667 8.7513,0.962291667 C6.293,0.962291667 3.5061,7.22339583 3.5061,9.59808333 C3.5061,10.2685833 3.534,11.4140208 4.619,11.4140208 Z M12.2946,0.459416667 L9.8673,8.45264583 C9.6999,8.98345833 9.3372,10.1847708 9.3372,10.5479583 C9.3372,10.7993958 9.4488,11.1067083 9.8394,11.1067083 C10.5648,11.1067083 11.4576,9.93333333 11.9877,8.95552083 L12.5767,8.95552083 C11.7087,10.7993958 10.2548,12.1962708 9.2225,12.1962708 C8.1654,12.1962708 7.8864,11.1905208 7.8864,10.5479583 C7.8864,10.2685833 7.998,9.59808333 8.2212,8.89964583 C7.6632,9.96127083 5.8745,12.1962708 4.2005,12.1962708 C3.1124,12.1962708 1.8848,11.2463958 1.8848,9.17902083 C1.8848,4.82077083 6.1845,0.235916667 8.6397,0.235916667 C9.4488,0.235916667 10.1184,0.682916667 10.3137,1.68866667 L10.6516,0.459416667 L12.2946,0.459416667 Z" id="Fill-26" fill="#7C7267" mask="url(#mask-4)"></path>
                <path d="M16.0301,3.95160417 C16.3401,0.319729167 18.0668,0.235916667 18.3768,0.235916667 C18.9875,0.235916667 19.4091,0.627041667 19.8803,1.32547917 C20.3298,1.96804167 20.5809,3.28420833 20.5809,5.23983333 C20.5809,6.30145833 20.522,8.81583333 19.7997,11.3581458 C21.0552,9.93333333 23.7026,6.27041667 23.7026,3.70016667 C23.7026,3.08554167 23.4267,2.41504167 23.2593,2.16360417 C23.0919,1.94010417 22.8408,1.49310417 22.8408,1.12991667 C22.8408,0.682916667 23.1198,0.235916667 23.5662,0.235916667 C24.3195,0.235916667 24.6822,1.21372917 24.6822,2.44297917 C24.6822,8.81583333 15.5279,16.7500833 14.2445,17.5354375 C12.7658,18.4294375 11.7025,18.625 10.8965,18.625 C9.889,18.625 9.1636,18.2618125 9.1636,17.61925 C9.1636,17.0015208 9.8642,16.72525 10.3075,16.72525 C10.6175,16.72525 10.9213,16.8090625 11.2871,16.9208125 C11.7335,17.0605 12.2047,17.17225 12.71,17.17225 C13.5749,17.17225 14.5514,16.892875 16.8671,14.5150833 C17.8994,13.4813958 18.1505,12.5594583 18.3768,11.6654583 C18.879,9.59808333 19.0464,7.25133333 19.0464,5.37641667 C19.0464,2.77822917 18.5411,1.40929167 17.8436,1.40929167 C17.0345,1.40929167 16.6997,2.69441667 16.5912,3.95160417 L16.0301,3.95160417" id="Fill-28" fill="#7C7267" mask="url(#mask-4)"></path>
            </g>
            <path d="M164.0055,142.571271 C161.8293,142.571271 161.2155,141.286146 161.2155,140.615646 C161.2155,140.308333 161.386,139.693708 161.9688,139.693708 C162.5826,139.693708 162.6942,140.168646 162.6942,140.475958 C162.6942,140.727396 162.5826,141.034708 162.5826,141.174396 C162.5826,141.733146 163.3359,142.012521 163.9776,142.012521 C165.6268,142.012521 166.408,140.811208 166.408,139.805458 C166.408,139.274646 166.1817,138.604146 165.9585,138.185083 L164.6193,135.670708 C164.1729,134.804646 164.1171,134.075167 164.1171,133.795792 C164.1171,131.923979 165.8779,130.666792 167.524,130.666792 C168.919,130.666792 169.8676,131.532854 169.8676,132.203354 C169.8676,132.566542 169.6444,132.957667 169.2538,132.957667 C168.8353,132.957667 168.7237,132.594479 168.6121,132.147479 C168.5284,131.812229 168.3858,131.225542 167.4124,131.225542 C166.4917,131.225542 165.4873,131.812229 165.4873,132.790042 C165.4873,133.264979 165.7384,134.106208 166.2096,134.944333 L167.214,136.732333 C167.3845,137.036542 167.8557,138.157146 167.8557,139.162896 C167.8557,140.643583 166.7707,142.571271 164.0055,142.571271" id="Fill-30" fill="#7C7267"></path>
            <path d="M178.2345,123.399937 C178.9072,123.399937 179.4373,123.961792 179.4373,124.604354 C179.4373,125.27175 178.8762,125.805667 178.2345,125.805667 C177.5928,125.805667 177.0348,125.27175 177.0348,124.604354 C177.0348,123.961792 177.5649,123.399937 178.2345,123.399937 Z M178.7088,139.190833 C177.9276,140.699458 176.5326,142.571271 175.0539,142.571271 C174.5548,142.571271 173.4357,142.291896 173.4357,140.755333 C173.4357,140.056896 173.7705,139.218771 173.91,138.799708 L175.7514,133.823729 C176.2536,132.454792 176.3094,132.315104 176.3094,132.035729 C176.3094,131.700479 176.0893,131.504917 175.8072,131.504917 C175.1097,131.504917 173.9937,132.845917 173.4915,133.823729 L172.8498,133.823729 C174.1611,131.309354 175.5561,130.610917 176.3652,130.610917 C177.2611,130.610917 177.816,131.309354 177.816,132.203354 C177.816,132.929729 177.5122,133.711979 177.0906,134.857417 L175.7793,138.408583 C175.5282,139.079083 175.0539,140.308333 175.0539,140.811208 C175.0539,141.481708 175.5282,141.565521 175.6677,141.565521 C176.4489,141.565521 177.4843,140.252458 178.0423,139.190833 L178.7088,139.190833 Z" id="Fill-31" fill="#7C7267"></path>
            <path d="M184.7662,141.789021 C185.6311,141.789021 187.1935,140.559771 188.1669,138.632083 C189.3108,136.369146 190.0393,133.544354 190.0393,132.706229 C190.0393,131.868104 189.5929,131.337292 188.8923,131.337292 C186.4402,131.337292 183.6471,137.598396 183.6471,139.973083 C183.6471,140.643583 183.675,141.789021 184.7662,141.789021 Z M192.4387,130.834417 L190.0114,138.827646 C189.844,139.358458 189.4813,140.559771 189.4813,140.922958 C189.4813,141.174396 189.5929,141.481708 189.9835,141.481708 C190.7089,141.481708 191.6017,140.308333 192.1349,139.330521 L192.7177,139.330521 C191.8528,141.174396 190.402,142.571271 189.3697,142.571271 C188.3095,142.571271 188.0274,141.565521 188.0274,140.922958 C188.0274,140.643583 188.139,139.973083 188.3653,139.274646 C187.8073,140.336271 186.0217,142.571271 184.3477,142.571271 C183.2565,142.571271 182.0289,141.621396 182.0289,139.554021 C182.0289,135.195771 186.3255,130.610917 188.7807,130.610917 C189.5929,130.610917 190.2625,131.057917 190.4547,132.063667 L190.7926,130.834417 L192.4387,130.834417 Z" id="Fill-32" fill="#7C7267"></path>
        </g>
    </g>
</svg>